<svg width="17" height="17" viewBox="0 0 17 17" fill="none" xmlns="http://www.w3.org/2000/svg">
<path d="M16.4113 9.14241C16.7602 9.12814 16.9918 8.86503 16.9997 8.51474C17.0092 8.16287 16.7872 7.88549 16.4415 7.86489C15.9054 7.8316 15.6517 7.58434 15.5375 7.07555C15.4154 6.52714 15.6771 6.26244 16.11 6.01993C16.3749 5.87253 16.4986 5.58722 16.3622 5.27339C16.2226 4.95163 15.9451 4.74083 15.6136 4.86446C15.1093 5.05307 14.7842 4.94212 14.4765 4.50942C14.1562 4.05927 14.2276 3.70898 14.5638 3.32066C14.8048 3.04011 14.7509 2.72786 14.4908 2.47901C14.2577 2.25553 13.9643 2.20164 13.7074 2.41244C13.3284 2.72469 12.9826 2.87051 12.5164 2.54717C12.0533 2.22541 11.8979 1.86244 12.1691 1.33464C12.1532 1.00178 12.0263 0.729161 11.6822 0.62138C11.3238 0.51043 11.0685 0.683196 10.9114 0.993858C10.7053 1.39804 10.4087 1.56446 9.95357 1.46461C9.5111 1.36634 9.17172 1.20942 9.15586 0.667346C9.14317 0.286943 8.90529 0.00481056 8.51516 5.55247e-05C8.08379 -0.00469951 7.85225 0.296453 7.83481 0.711726C7.81419 1.21734 7.4875 1.35841 7.07675 1.4551C6.67393 1.5502 6.34724 1.4757 6.14583 1.09054C5.95711 0.730746 5.69861 0.467634 5.27517 0.641986C4.83905 0.821092 4.76134 1.16662 4.92945 1.61201C5.08486 2.02887 4.83271 2.29674 4.50601 2.52181C4.17615 2.74688 3.85104 2.8721 3.50848 2.57095C3.17544 2.27772 2.82655 2.14616 2.47765 2.51072C2.16206 2.84198 2.27466 3.17642 2.54902 3.48391C2.84875 3.81994 2.7647 4.14011 2.53474 4.47772C2.29527 4.83117 2.02567 5.09904 1.56735 4.91676C1.15184 4.75192 0.834661 4.85812 0.653869 5.24645C0.455632 5.66806 0.695102 5.9391 1.05827 6.12613C1.44047 6.32267 1.561 6.63333 1.4595 7.04068C1.36276 7.43059 1.2692 7.80783 0.744265 7.82685C0.333518 7.84111 0.0131665 8.05033 0.000479323 8.48146C-0.0137937 8.91416 0.292284 9.14875 0.706203 9.1646C1.21369 9.1852 1.35325 9.51488 1.45316 9.92065C1.56417 10.3629 1.44206 10.6846 1.02497 10.8923C0.684001 11.0634 0.477834 11.3361 0.636424 11.7181C0.798185 12.1064 1.10426 12.2585 1.52928 12.0905C1.97651 11.9146 2.26831 12.1254 2.5173 12.4868C2.76628 12.8497 2.85509 13.1889 2.5284 13.5487C2.24135 13.8626 2.1795 14.2018 2.50461 14.5172C2.798 14.8025 3.12787 14.766 3.41492 14.5013C3.76381 14.1812 4.09685 14.1986 4.47429 14.4538C4.85967 14.7153 5.09438 15.0133 4.9009 15.4999C4.74707 15.8866 4.8898 16.1735 5.2387 16.3431C5.61772 16.5286 5.90477 16.351 6.08239 16.0134C6.29173 15.614 6.58036 15.4333 7.0371 15.5348C7.47481 15.6314 7.82529 15.7804 7.84115 16.3257C7.85225 16.7061 8.08379 16.985 8.47551 16.9993C8.86723 17.0152 9.12731 16.7552 9.14793 16.3732C9.17489 15.8565 9.44925 15.6489 9.91233 15.5443C10.4055 15.4317 10.7085 15.6061 10.9321 16.0372C11.0922 16.3463 11.3745 16.5064 11.7187 16.3637C12.0707 16.2163 12.261 15.9278 12.112 15.5443C11.9264 15.064 12.0945 14.7565 12.4878 14.4791C12.8875 14.197 13.2364 14.1701 13.6106 14.514C13.9056 14.7851 14.2307 14.7851 14.5146 14.4918C14.7699 14.2287 14.7858 13.9212 14.5447 13.6454C14.2276 13.284 14.1641 12.9417 14.4559 12.5217C14.7477 12.1016 15.0617 11.9162 15.5787 12.1206C15.9181 12.2554 16.1941 12.0715 16.3479 11.7545C16.516 11.4106 16.3749 11.1221 16.0751 10.9541C15.666 10.7274 15.4249 10.4611 15.5328 9.95552C15.639 9.46258 15.8579 9.1646 16.4113 9.14241ZM6.89754 3.51086C9.58564 2.49486 13.0651 4.44602 13.5964 7.28002C13.6646 7.64774 13.6646 7.88232 13.1698 7.84111C12.6496 7.79832 12.1231 7.8316 11.5997 7.8316C11.2334 7.8316 10.867 7.83953 10.5007 7.83002C9.43181 7.80466 8.6008 7.35927 8.05842 6.41936C7.6001 5.62843 7.15446 4.83117 6.68028 4.04976C6.48838 3.73434 6.56133 3.63766 6.89754 3.51086ZM5.55429 12.3029C5.38143 12.6263 5.25138 12.6168 4.99605 12.3822C3.85421 11.3361 3.31025 10.0284 3.24998 8.53852C3.29756 6.9963 3.84628 5.71561 4.92786 4.66158C5.20539 4.39212 5.37825 4.31763 5.59394 4.74558C5.93332 5.41921 6.30759 6.07858 6.71834 6.711C7.49701 7.90768 7.50336 9.07108 6.72151 10.2725C6.2949 10.9255 5.9238 11.615 5.55429 12.3029ZM13.4441 10.2123C12.5624 12.7832 9.7696 14.262 7.15129 13.5693C6.57243 13.4172 6.41384 13.2206 6.81666 12.6992C7.08627 12.3505 7.30353 11.951 7.47957 11.5469C8.28045 9.71301 9.61418 8.83808 11.6457 9.16777H12.7432C13.7803 9.16935 13.7946 9.18996 13.4441 10.2123Z" fill="#0066CC"/>
</svg>
