<svg width="14" height="18" viewBox="0 0 14 18" fill="none" xmlns="http://www.w3.org/2000/svg">
<path d="M7 1.125C7.66304 1.125 8.29893 1.42132 8.76777 1.94876C9.23661 2.47621 9.5 3.19158 9.5 3.9375V4.5H4.5V3.9375C4.5 3.19158 4.76339 2.47621 5.23223 1.94876C5.70107 1.42132 6.33696 1.125 7 1.125ZM10.5 4.5V3.9375C10.5 2.89321 10.1313 1.89169 9.47487 1.15327C8.8185 0.414843 7.92826 0 7 0C6.07174 0 5.1815 0.414843 4.52513 1.15327C3.86875 1.89169 3.5 2.89321 3.5 3.9375V4.5H0V15.75C0 16.3467 0.210714 16.919 0.585786 17.341C0.960859 17.7629 1.46957 18 2 18H12C12.5304 18 13.0391 17.7629 13.4142 17.341C13.7893 16.919 14 16.3467 14 15.75V4.5H10.5ZM1 5.625H13V15.75C13 16.0484 12.8946 16.3345 12.7071 16.5455C12.5196 16.7565 12.2652 16.875 12 16.875H2C1.73478 16.875 1.48043 16.7565 1.29289 16.5455C1.10536 16.3345 1 16.0484 1 15.75V5.625Z" fill="#0066CC"/>
</svg>
