<svg width="16" height="16" viewBox="0 0 16 16" fill="none" xmlns="http://www.w3.org/2000/svg">
<path d="M9.3 0.250385C8.46548 -0.0834616 7.53452 -0.0834616 6.7 0.250385L0.943 2.55538C0.664909 2.6666 0.426479 2.85852 0.258415 3.10643C0.0903513 3.35434 0.000349414 3.64688 2.09356e-08 3.94638V11.5924C-5.00639e-05 11.8922 0.0897655 12.1852 0.257855 12.4335C0.425944 12.6818 0.664593 12.874 0.943 12.9854L6.7 15.2884C7.53452 15.6222 8.46548 15.6222 9.3 15.2884L15.057 12.9854C15.3354 12.874 15.5741 12.6818 15.7421 12.4335C15.9102 12.1852 16 11.8922 16 11.5924V3.94638C15.9999 3.64671 15.9099 3.35395 15.7419 3.10584C15.5738 2.85774 15.3352 2.66566 15.057 2.55438L9.3 0.250385ZM7.072 1.18038C7.66804 0.941961 8.33296 0.941961 8.929 1.18038L14.154 3.27038L11.875 4.18038L5.721 1.72038L7.071 1.18038H7.072ZM4.375 2.25738L10.529 4.71838L8 5.73138L1.846 3.26938L4.375 2.25838V2.25738ZM8.5 6.60738L15 4.00738V11.5914C15.0002 11.6914 14.9703 11.7892 14.9144 11.8721C14.8584 11.955 14.7788 12.0192 14.686 12.0564L8.928 14.3594C8.788 14.4144 8.645 14.4574 8.5 14.4874V6.60738ZM7.5 6.60738V14.4874C7.35381 14.4575 7.21057 14.4147 7.072 14.3594L1.314 12.0564C1.22131 12.0192 1.14187 11.9552 1.08591 11.8725C1.02994 11.7898 1.00002 11.6922 1 11.5924V4.00838L7.5 6.60839V6.60738Z" fill="#0066CC"/>
</svg>
