<svg width="10" height="16" viewBox="0 0 10 16" fill="none" xmlns="http://www.w3.org/2000/svg">
<path d="M10 2.36361C10 1.73674 9.78599 1.13555 9.40506 0.692285C9.02413 0.249022 8.50747 0 7.96875 0H2.03125C1.7645 0 1.50037 0.0611365 1.25392 0.179919C1.00748 0.298701 0.783558 0.472803 0.594939 0.692285C0.40632 0.911766 0.256699 1.17233 0.154619 1.45909C0.0525398 1.74586 0 2.05321 0 2.36361V15.4544C-3.05176e-05 15.5559 0.0242996 15.6554 0.0702515 15.7418C0.116203 15.8281 0.181952 15.8978 0.260096 15.943C0.33824 15.9882 0.425675 16.0071 0.51256 15.9976C0.599443 15.9881 0.682325 15.9506 0.751875 15.8893L5 12.138L9.24812 15.8885C9.31763 15.9498 9.40046 15.9874 9.48729 15.9969C9.57411 16.0064 9.6615 15.9875 9.73962 15.9424C9.81775 15.8973 9.8835 15.8277 9.9295 15.7415C9.9755 15.6553 9.99991 15.5558 10 15.4544V2.36361ZM7.96875 1.0909C8.25883 1.0909 8.53703 1.22499 8.74215 1.46367C8.94727 1.70234 9.0625 2.02606 9.0625 2.36361V14.3562L5.28312 11.0202C5.20165 10.9484 5.10223 10.9095 5 10.9095C4.89777 10.9095 4.79835 10.9484 4.71688 11.0202L0.9375 14.3562V2.36361C0.9375 2.02606 1.05273 1.70234 1.25785 1.46367C1.46297 1.22499 1.74117 1.0909 2.03125 1.0909H7.96875Z" fill="#0066CC"/>
</svg>
